<svg id="Capa_1" data-name="Capa 1" xmlns="http://www.w3.org/2000/svg" viewBox="0 0 430 178"><defs><style>.cls-1{fill:#b3a0a2;}</style></defs><title>Mesa de trabajo 15</title><path class="cls-1" d="M16.55,166.37a11.18,11.18,0,0,1-.23,2.4,4.77,4.77,0,0,1-.79,1.88A3.7,3.7,0,0,1,14,171.86a5.46,5.46,0,0,1-2.32.43,5.12,5.12,0,0,1-1-.09,6.62,6.62,0,0,1-.88-.23,5.93,5.93,0,0,1-.7-.29,1.61,1.61,0,0,1-.4-.26,1.19,1.19,0,0,1-.15-.21,1,1,0,0,1-.1-.21,2.05,2.05,0,0,1-.07-.31c0-.12,0-.27,0-.44a2.92,2.92,0,0,1,0-.46,1.11,1.11,0,0,1,.1-.28.36.36,0,0,1,.16-.14.48.48,0,0,1,.22-.05.75.75,0,0,1,.38.16c.16.1.35.21.57.32a5.37,5.37,0,0,0,.79.33,3.42,3.42,0,0,0,1.06.16,3.59,3.59,0,0,0,1.16-.17,1.52,1.52,0,0,0,.79-.64,3.45,3.45,0,0,0,.46-1.3,11.59,11.59,0,0,0,.16-2.17V148.77a.46.46,0,0,1,.05-.2.35.35,0,0,1,.19-.14,1.18,1.18,0,0,1,.34-.09,3.53,3.53,0,0,1,1.06,0,1.18,1.18,0,0,1,.34.09.35.35,0,0,1,.19.14.46.46,0,0,1,.05.2Z"/><path class="cls-1" d="M59.21,159.92a18.81,18.81,0,0,1-.64,5.11,11,11,0,0,1-1.94,3.9,8.77,8.77,0,0,1-3.26,2.49,11.32,11.32,0,0,1-4.59.87,11.18,11.18,0,0,1-4.51-.83,7.87,7.87,0,0,1-3.1-2.37,10,10,0,0,1-1.78-3.76,19.7,19.7,0,0,1-.58-5,18.36,18.36,0,0,1,.64-5,10.43,10.43,0,0,1,1.94-3.85A8.83,8.83,0,0,1,44.65,149a11.27,11.27,0,0,1,4.6-.87,11,11,0,0,1,4.44.82,7.93,7.93,0,0,1,3.11,2.35A10,10,0,0,1,58.62,155,18.75,18.75,0,0,1,59.21,159.92Zm-2.36.2a18.08,18.08,0,0,0-.4-3.92A9.14,9.14,0,0,0,55.16,153a6.23,6.23,0,0,0-2.39-2.13,7.94,7.94,0,0,0-3.7-.78,7.68,7.68,0,0,0-3.69.81,6.84,6.84,0,0,0-2.44,2.18,8.92,8.92,0,0,0-1.35,3.19,17.59,17.59,0,0,0-.41,3.84,20.15,20.15,0,0,0,.37,4,9,9,0,0,0,1.27,3.21,6.13,6.13,0,0,0,2.39,2.15,8.12,8.12,0,0,0,3.73.77,7.68,7.68,0,0,0,3.73-.83,6.81,6.81,0,0,0,2.45-2.22A9.43,9.43,0,0,0,56.44,164,17.75,17.75,0,0,0,56.85,160.12Z"/><path class="cls-1" d="M88,162.69v8.93a.36.36,0,0,1-.06.2.3.3,0,0,1-.18.14,1.18,1.18,0,0,1-.34.09,2.79,2.79,0,0,1-.53,0,2.7,2.7,0,0,1-.54,0A1.48,1.48,0,0,1,86,172a.35.35,0,0,1-.19-.14.46.46,0,0,1,0-.2v-8.93l-6.78-13.53a1.64,1.64,0,0,1-.14-.44.26.26,0,0,1,.08-.26.61.61,0,0,1,.34-.12,3.25,3.25,0,0,1,.6,0,5.48,5.48,0,0,1,.64,0,1.28,1.28,0,0,1,.4.08.43.43,0,0,1,.23.14,2.1,2.1,0,0,1,.15.22l3.6,7.34c.34.7.68,1.41,1,2.15l1,2.24h0c.32-.71.64-1.44,1-2.16s.66-1.46,1-2.17l3.64-7.4a1.16,1.16,0,0,1,.13-.22.48.48,0,0,1,.2-.14,1,1,0,0,1,.34-.08,3.74,3.74,0,0,1,.52,0,4.61,4.61,0,0,1,.71,0,.73.73,0,0,1,.38.13.32.32,0,0,1,.09.27,1.36,1.36,0,0,1-.14.42Z"/><path class="cls-1" d="M229.55,171.24a1.08,1.08,0,0,1,.1.45.32.32,0,0,1-.13.26.72.72,0,0,1-.36.12,5.29,5.29,0,0,1-.63,0,4.93,4.93,0,0,1-.61,0,1.21,1.21,0,0,1-.35-.08.42.42,0,0,1-.19-.15.66.66,0,0,1-.12-.22l-2.94-8.14-4.59-12.63-7.25,20.74a.57.57,0,0,1-.11.22.46.46,0,0,1-.2.15,1.14,1.14,0,0,1-.35.1,3.09,3.09,0,0,1-.58,0,3.77,3.77,0,0,1-.63,0,.71.71,0,0,1-.38-.13.29.29,0,0,1-.12-.25.93.93,0,0,1,.1-.44l8.25-22.42a.6.6,0,0,1,.16-.25.84.84,0,0,1,.28-.15,1.65,1.65,0,0,1,.42-.08,4.73,4.73,0,0,1,.56,0,4.67,4.67,0,0,1,.57,0,1.49,1.49,0,0,1,.42.08.68.68,0,0,1,.28.15.87.87,0,0,1,.15.25Z"/><path class="cls-1" d="M387.69,171.2a1.27,1.27,0,0,1,.1.44.35.35,0,0,1-.13.27.76.76,0,0,1-.36.12l-.63,0-.61,0a1.34,1.34,0,0,1-.36-.09.4.4,0,0,1-.19-.14,2.18,2.18,0,0,1-.12-.22l-2.93-8.14-4.59-12.64-7.25,20.74a.51.51,0,0,1-.11.22.67.67,0,0,1-.2.16,1.51,1.51,0,0,1-.35.1,4.73,4.73,0,0,1-.58,0,5.72,5.72,0,0,1-.64,0,.88.88,0,0,1-.37-.13.35.35,0,0,1-.13-.26,1.27,1.27,0,0,1,.1-.43l8.25-22.43a.7.7,0,0,1,.17-.24.76.76,0,0,1,.28-.16,3.51,3.51,0,0,1,.42-.08,4.61,4.61,0,0,1,.56,0,4.79,4.79,0,0,1,.57,0,3.51,3.51,0,0,1,.42.08.65.65,0,0,1,.27.16.67.67,0,0,1,.16.24Z"/><path class="cls-1" d="M133.56,171a1.27,1.27,0,0,1,.1.44.35.35,0,0,1-.13.27.67.67,0,0,1-.36.11,5.53,5.53,0,0,1-.63,0,4.82,4.82,0,0,1-.61,0,1,1,0,0,1-.36-.08.4.4,0,0,1-.19-.14,2.18,2.18,0,0,1-.12-.22l-2.93-8.14-4.6-12.64-7.24,20.74a.65.65,0,0,1-.11.22.83.83,0,0,1-.2.16,1.62,1.62,0,0,1-.36.1,4.45,4.45,0,0,1-.57,0,5.6,5.6,0,0,1-.64,0,.88.88,0,0,1-.37-.13.35.35,0,0,1-.13-.26,1.23,1.23,0,0,1,.1-.43l8.25-22.43a.53.53,0,0,1,.17-.24.69.69,0,0,1,.28-.16,2.09,2.09,0,0,1,.42-.08,4.56,4.56,0,0,1,.55,0,5,5,0,0,1,.58,0,2.24,2.24,0,0,1,.42.08.72.72,0,0,1,.27.16.6.6,0,0,1,.16.24Z"/><path class="cls-1" d="M165.72,165.6a6.65,6.65,0,0,1-.56,2.81,5.91,5.91,0,0,1-1.59,2.1,6.91,6.91,0,0,1-2.42,1.32,9.63,9.63,0,0,1-3.06.46,10.4,10.4,0,0,1-2.13-.21,12.83,12.83,0,0,1-1.78-.5,9,9,0,0,1-1.33-.59,3.34,3.34,0,0,1-.73-.51,1.23,1.23,0,0,1-.29-.49,2.09,2.09,0,0,1-.1-.71,3.52,3.52,0,0,1,0-.51,1.1,1.1,0,0,1,.1-.32.36.36,0,0,1,.16-.18.52.52,0,0,1,.21,0,1.4,1.4,0,0,1,.72.32,10.8,10.8,0,0,0,1.21.69,11.15,11.15,0,0,0,1.76.69,8.25,8.25,0,0,0,2.4.32,6.61,6.61,0,0,0,2-.3,4.66,4.66,0,0,0,1.6-.87,3.82,3.82,0,0,0,1.05-1.39,4.52,4.52,0,0,0,.37-1.89,3.61,3.61,0,0,0-.47-1.87,5.09,5.09,0,0,0-1.25-1.38,10.68,10.68,0,0,0-1.76-1.07c-.65-.32-1.32-.65-2-1s-1.36-.67-2-1a8.66,8.66,0,0,1-1.76-1.33,5.91,5.91,0,0,1-1.25-1.77,6.42,6.42,0,0,1,0-4.87,5.16,5.16,0,0,1,1.38-1.84,6.22,6.22,0,0,1,2.14-1.16,8.92,8.92,0,0,1,2.75-.4,8.75,8.75,0,0,1,1.51.14,12.28,12.28,0,0,1,1.45.38,8.14,8.14,0,0,1,1.22.51,3.69,3.69,0,0,1,.71.45,1.66,1.66,0,0,1,.22.26,1.17,1.17,0,0,1,.08.21,1.86,1.86,0,0,1,0,.3c0,.11,0,.26,0,.43a2.67,2.67,0,0,1,0,.42,1,1,0,0,1-.08.33.46.46,0,0,1-.14.21.25.25,0,0,1-.19.07,1.32,1.32,0,0,1-.61-.26,11.69,11.69,0,0,0-1-.59,7.88,7.88,0,0,0-1.47-.59,6.47,6.47,0,0,0-1.95-.27,5.63,5.63,0,0,0-1.88.29,3.9,3.9,0,0,0-1.33.8,3.23,3.23,0,0,0-.79,1.17,4,4,0,0,0-.26,1.42,3.52,3.52,0,0,0,.47,1.88A5.13,5.13,0,0,0,156.4,157a10.84,10.84,0,0,0,1.77,1.09l2,1c.68.32,1.36.67,2,1a8.64,8.64,0,0,1,1.77,1.31,5.89,5.89,0,0,1,1.26,1.77A5.51,5.51,0,0,1,165.72,165.6Z"/><path class="cls-1" d="M265.49,171.58a.51.51,0,0,1,0,.22.36.36,0,0,1-.17.15,1,1,0,0,1-.36.1,3,3,0,0,1-.57,0,3.74,3.74,0,0,1-.52,0,1,1,0,0,1-.36-.11.6.6,0,0,1-.23-.22,1.63,1.63,0,0,1-.17-.35l-2.2-5.72c-.26-.64-.53-1.25-.82-1.82a6.07,6.07,0,0,0-1.06-1.49,4.42,4.42,0,0,0-1.49-1,5.52,5.52,0,0,0-2.1-.36H253v10.62a.46.46,0,0,1-.05.2.37.37,0,0,1-.18.14,1.28,1.28,0,0,1-.34.09,3.6,3.6,0,0,1-1.07,0A1.18,1.18,0,0,1,251,172a.35.35,0,0,1-.19-.14.46.46,0,0,1,0-.2V149.56a1,1,0,0,1,.35-.91,1.17,1.17,0,0,1,.67-.24h4.43c.58,0,1.06,0,1.44,0s.74.07,1.05.12a8.11,8.11,0,0,1,2.35.77,5.42,5.42,0,0,1,1.66,1.3,5.1,5.1,0,0,1,1,1.75,6.51,6.51,0,0,1,.32,2.1,6.19,6.19,0,0,1-.33,2.09,5,5,0,0,1-.92,1.62,5.86,5.86,0,0,1-1.44,1.21,9.71,9.71,0,0,1-1.84.86,4.56,4.56,0,0,1,1.08.67,5.21,5.21,0,0,1,.89,1,8.76,8.76,0,0,1,.78,1.3c.24.49.48,1,.73,1.65l2.2,5.5c.16.42.26.72.3.87A1.67,1.67,0,0,1,265.49,171.58Zm-3.91-16.85a4.63,4.63,0,0,0-.68-2.56,3.77,3.77,0,0,0-2.25-1.5,6.71,6.71,0,0,0-1.15-.21c-.42,0-1-.07-1.62-.07H253v8.66h3.39a7.43,7.43,0,0,0,2.35-.34,4.66,4.66,0,0,0,1.63-.92,3.5,3.5,0,0,0,.95-1.37A4.66,4.66,0,0,0,261.58,154.73Z"/><path class="cls-1" d="M300.11,171a2.72,2.72,0,0,1,0,.42,1,1,0,0,1-.12.31.69.69,0,0,1-.19.19.48.48,0,0,1-.24.06h-11a1.14,1.14,0,0,1-.67-.25,1,1,0,0,1-.35-.9V149.56a1.06,1.06,0,0,1,.35-.91,1.19,1.19,0,0,1,.67-.24h10.88a.53.53,0,0,1,.24.06.55.55,0,0,1,.18.19,1.2,1.2,0,0,1,.11.32,3,3,0,0,1,0,.45,2.58,2.58,0,0,1,0,.42,1,1,0,0,1-.11.3.52.52,0,0,1-.18.18.53.53,0,0,1-.24.06h-9.67v8.29H298a.41.41,0,0,1,.25.07.47.47,0,0,1,.19.18,1.37,1.37,0,0,1,.11.31,2.85,2.85,0,0,1,0,.44,2.37,2.37,0,0,1,0,.41,1.36,1.36,0,0,1-.11.29.49.49,0,0,1-.19.16.49.49,0,0,1-.25.05h-8.34V170h9.83a.48.48,0,0,1,.24.07.54.54,0,0,1,.19.18.8.8,0,0,1,.12.31A2.89,2.89,0,0,1,300.11,171Z"/><path class="cls-1" d="M347.19,171.62a.33.33,0,0,1-.24.34,1.36,1.36,0,0,1-.35.09,2.66,2.66,0,0,1-.53,0,2.51,2.51,0,0,1-.51,0,1.17,1.17,0,0,1-.35-.09.3.3,0,0,1-.18-.14.36.36,0,0,1-.06-.2V150.36h0l-9.28,21.38a.36.36,0,0,1-.11.14.53.53,0,0,1-.2.11,1.67,1.67,0,0,1-.3.07,2.37,2.37,0,0,1-.41,0,2.63,2.63,0,0,1-.43,0,1.48,1.48,0,0,1-.3-.07.75.75,0,0,1-.2-.11.42.42,0,0,1-.09-.14l-8.81-21.38h0v21.26a.36.36,0,0,1-.06.2.32.32,0,0,1-.19.14,1.28,1.28,0,0,1-.34.09,2.86,2.86,0,0,1-.56,0,2.55,2.55,0,0,1-.52,0,1.28,1.28,0,0,1-.34-.09.3.3,0,0,1-.17-.14.45.45,0,0,1,0-.2V149.56a1.06,1.06,0,0,1,.34-.91,1.2,1.2,0,0,1,.68-.24h1.2a2.78,2.78,0,0,1,.8.1,2,2,0,0,1,.61.29,1.79,1.79,0,0,1,.45.46,3.61,3.61,0,0,1,.32.62l7.78,18.73h.09L343,150a3.91,3.91,0,0,1,.39-.74,2.3,2.3,0,0,1,.44-.48,1.23,1.23,0,0,1,.49-.26,2.12,2.12,0,0,1,.57-.07h1.33a1.48,1.48,0,0,1,.35.05.92.92,0,0,1,.33.19,1,1,0,0,1,.24.36,1.29,1.29,0,0,1,.1.55Z"/><path class="cls-1" d="M423.59,171.58a.51.51,0,0,1,0,.22.36.36,0,0,1-.17.15,1,1,0,0,1-.36.1,3,3,0,0,1-.57,0,3.74,3.74,0,0,1-.52,0,1,1,0,0,1-.36-.11.63.63,0,0,1-.24-.22,1.65,1.65,0,0,1-.16-.35l-2.2-5.72c-.26-.64-.53-1.25-.82-1.82a6.07,6.07,0,0,0-1.06-1.49,4.42,4.42,0,0,0-1.49-1,5.52,5.52,0,0,0-2.1-.36h-2.44v10.62a.46.46,0,0,1-.05.2.35.35,0,0,1-.19.14,1.1,1.1,0,0,1-.33.09,3.6,3.6,0,0,1-1.07,0,1.18,1.18,0,0,1-.34-.09.35.35,0,0,1-.19-.14.46.46,0,0,1-.05-.2V149.56a1.06,1.06,0,0,1,.34-.91,1.22,1.22,0,0,1,.68-.24h4.43c.58,0,1.06,0,1.44,0s.74.07,1,.12a8.11,8.11,0,0,1,2.35.77,5.42,5.42,0,0,1,1.66,1.3,5.1,5.1,0,0,1,1,1.75,6.51,6.51,0,0,1,.32,2.1,6.19,6.19,0,0,1-.33,2.09,4.83,4.83,0,0,1-.93,1.62,6,6,0,0,1-1.43,1.21,9.71,9.71,0,0,1-1.84.86,4.56,4.56,0,0,1,1.08.67,5.21,5.21,0,0,1,.89,1,8.76,8.76,0,0,1,.78,1.3c.24.49.48,1,.73,1.65l2.2,5.5c.16.42.26.72.3.87A1.67,1.67,0,0,1,423.59,171.58Zm-3.91-16.85a4.63,4.63,0,0,0-.68-2.56,3.76,3.76,0,0,0-2.26-1.5,6.42,6.42,0,0,0-1.14-.21c-.42,0-1-.07-1.62-.07h-2.92v8.66h3.39a7.43,7.43,0,0,0,2.35-.34,4.76,4.76,0,0,0,1.63-.92,3.5,3.5,0,0,0,.95-1.37A4.66,4.66,0,0,0,419.68,154.73Z"/><polygon class="cls-1" points="121.47 104.28 167.21 5.01 212.7 104.53 203.65 104.78 166.71 26.62 132.37 104.22 121.47 104.28"/><polygon class="cls-1" points="191.67 30.39 199.13 47.57 219.07 65.07 264.35 24.23 264.47 103.78 273.77 103.78 272.85 5.93 219.65 55.73 191.67 30.39"/></svg>