<svg id="Capa_1" data-name="Capa 1" xmlns="http://www.w3.org/2000/svg" viewBox="0 0 26.5 23.57"><defs><style>.cls-1{fill:#fff;}.cls-2{fill:#999;}</style></defs><title>Mesa de trabajo 34</title><path class="cls-1" d="M13.25,22.68a1.43,1.43,0,0,1-.95-.35c-1-.87-1.94-1.68-2.78-2.4h0a51.89,51.89,0,0,1-6.08-5.71A9.11,9.11,0,0,1,1,8.25,7.68,7.68,0,0,1,2.94,3,6.61,6.61,0,0,1,7.84.89a6.16,6.16,0,0,1,3.85,1.33,7.76,7.76,0,0,1,1.56,1.62A8,8,0,0,1,14.8,2.22,6.18,6.18,0,0,1,18.65.89,6.61,6.61,0,0,1,23.55,3,7.64,7.64,0,0,1,25.5,8.25a9.16,9.16,0,0,1-2.43,6A53.54,53.54,0,0,1,17,19.93c-.85.72-1.8,1.53-2.8,2.4A1.4,1.4,0,0,1,13.25,22.68Z"/><path class="cls-2" d="M13.25,23.57a1.56,1.56,0,0,1-1-.38c-1.07-.94-2.1-1.82-3-2.59h0a55.75,55.75,0,0,1-6.58-6.17A9.91,9.91,0,0,1,0,8,8.3,8.3,0,0,1,2.1,2.31,7.13,7.13,0,0,1,7.4,0a6.61,6.61,0,0,1,4.16,1.44,8.53,8.53,0,0,1,1.69,1.75,8.49,8.49,0,0,1,1.68-1.75A6.61,6.61,0,0,1,19.09,0a7.11,7.11,0,0,1,5.3,2.31A8.26,8.26,0,0,1,26.5,8a9.91,9.91,0,0,1-2.63,6.46,56.55,56.55,0,0,1-6.58,6.17c-.91.78-1.95,1.66-3,2.6A1.54,1.54,0,0,1,13.25,23.57ZM7.4,1.55A5.58,5.58,0,0,0,3.24,3.36,6.73,6.73,0,0,0,1.55,8a8.31,8.31,0,0,0,2.27,5.47,56,56,0,0,0,6.39,6h0c.91.77,1.95,1.66,3,2.6l3-2.61a54.36,54.36,0,0,0,6.39-6A8.31,8.31,0,0,0,24.94,8a6.73,6.73,0,0,0-1.69-4.6,5.57,5.57,0,0,0-4.16-1.81,5.21,5.21,0,0,0-3.21,1.11,7.51,7.51,0,0,0-1.79,2.08,1,1,0,0,1-1.68,0,7.51,7.51,0,0,0-1.79-2.08A5.22,5.22,0,0,0,7.4,1.55Z"/></svg>