<svg id="Capa_1" data-name="Capa 1" xmlns="http://www.w3.org/2000/svg" viewBox="0 0 328 32"><defs><style>.cls-1{fill:#b3a0a2;}</style></defs><title>Mesa de trabajo 14</title><path class="cls-1" d="M12.41,21.33a9.44,9.44,0,0,1-.17,1.84,3.76,3.76,0,0,1-.61,1.44,2.9,2.9,0,0,1-1.14.93,4.24,4.24,0,0,1-1.77.32A3.57,3.57,0,0,1,8,25.79a4.1,4.1,0,0,1-.67-.17,3.54,3.54,0,0,1-.54-.22,1.15,1.15,0,0,1-.31-.21A.48.48,0,0,1,6.35,25a.54.54,0,0,1-.08-.17,1.14,1.14,0,0,1,0-.23c0-.1,0-.21,0-.34a3.32,3.32,0,0,1,0-.35.71.71,0,0,1,.08-.21.25.25,0,0,1,.12-.11.31.31,0,0,1,.17,0,.59.59,0,0,1,.29.12c.12.08.27.16.44.25a4.35,4.35,0,0,0,.6.25,2.55,2.55,0,0,0,.81.12,2.61,2.61,0,0,0,.89-.13,1.14,1.14,0,0,0,.61-.48,3,3,0,0,0,.35-1,9.31,9.31,0,0,0,.12-1.67V7.86a.28.28,0,0,1,0-.15.26.26,0,0,1,.14-.11,1.15,1.15,0,0,1,.27-.07,2.68,2.68,0,0,1,.8,0,1.15,1.15,0,0,1,.27.07.26.26,0,0,1,.14.11.28.28,0,0,1,0,.15Z"/><path class="cls-1" d="M45.07,16.4a14.37,14.37,0,0,1-.5,3.91,8.33,8.33,0,0,1-1.48,3,6.49,6.49,0,0,1-2.5,1.9,8.49,8.49,0,0,1-3.51.67,8.57,8.57,0,0,1-3.45-.63,6.11,6.11,0,0,1-2.37-1.81,7.71,7.71,0,0,1-1.37-2.88,15.53,15.53,0,0,1-.44-3.84,14,14,0,0,1,.49-3.85A8.11,8.11,0,0,1,31.42,9.9,6.69,6.69,0,0,1,33.92,8a8.5,8.5,0,0,1,3.52-.67,8.57,8.57,0,0,1,3.4.62,6.2,6.2,0,0,1,2.38,1.8,7.76,7.76,0,0,1,1.4,2.85A14.51,14.51,0,0,1,45.07,16.4Zm-1.81.15a14.42,14.42,0,0,0-.3-3,7.11,7.11,0,0,0-1-2.44,4.92,4.92,0,0,0-1.84-1.63,6.15,6.15,0,0,0-2.83-.59,5.94,5.94,0,0,0-2.82.62,5.19,5.19,0,0,0-1.87,1.67,6.89,6.89,0,0,0-1,2.44,13.31,13.31,0,0,0-.32,2.94,15.44,15.44,0,0,0,.29,3.06,6.93,6.93,0,0,0,1,2.46,4.69,4.69,0,0,0,1.83,1.64,6.2,6.2,0,0,0,2.85.59,5.9,5.9,0,0,0,2.86-.63A5.19,5.19,0,0,0,41.93,22a7.19,7.19,0,0,0,1-2.47A14.11,14.11,0,0,0,43.26,16.55Z"/><path class="cls-1" d="M67.07,18.52v6.83a.26.26,0,0,1,0,.15.23.23,0,0,1-.14.11,1.05,1.05,0,0,1-.26.07,2.82,2.82,0,0,1-.82,0,1.2,1.2,0,0,1-.26-.07.25.25,0,0,1-.15-.11.26.26,0,0,1,0-.15V18.52L60.17,8.15a1.26,1.26,0,0,1-.11-.33.23.23,0,0,1,.06-.2.6.6,0,0,1,.26-.09,2.86,2.86,0,0,1,.46,0l.5,0a1.76,1.76,0,0,1,.3.06.5.5,0,0,1,.18.11l.11.17,2.76,5.62c.26.53.52,1.08.77,1.65s.52,1.14.78,1.71h0c.25-.55.49-1.1.74-1.66s.51-1.11.77-1.66l2.79-5.66a1,1,0,0,1,.1-.17.45.45,0,0,1,.15-.11,1.26,1.26,0,0,1,.26-.06l.4,0a4,4,0,0,1,.54,0,.54.54,0,0,1,.29.1.21.21,0,0,1,.07.2.87.87,0,0,1-.11.32Z"/><path class="cls-1" d="M175.46,25.06a.9.9,0,0,1,.08.34.3.3,0,0,1-.1.21.7.7,0,0,1-.28.09l-.48,0-.47,0a1.31,1.31,0,0,1-.27-.07.26.26,0,0,1-.14-.11.42.42,0,0,1-.09-.16l-2.25-6.24-3.52-9.67L162.4,25.33a.42.42,0,0,1-.09.16.36.36,0,0,1-.15.12.86.86,0,0,1-.27.08,2.76,2.76,0,0,1-.44,0,3.28,3.28,0,0,1-.49,0,.61.61,0,0,1-.29-.1.22.22,0,0,1-.09-.19.82.82,0,0,1,.07-.34L167,7.9a.43.43,0,0,1,.13-.19.53.53,0,0,1,.21-.12,1.4,1.4,0,0,1,.32-.06,2.89,2.89,0,0,1,.43,0,3,3,0,0,1,.44,0,1.4,1.4,0,0,1,.32.06.53.53,0,0,1,.21.12.52.52,0,0,1,.12.19Z"/><path class="cls-1" d="M296.51,25a.71.71,0,0,1,.08.34.23.23,0,0,1-.1.2.48.48,0,0,1-.27.09,3.48,3.48,0,0,1-.49,0,3,3,0,0,1-.46,0,.9.9,0,0,1-.28-.06.4.4,0,0,1-.14-.11,1.31,1.31,0,0,1-.09-.17l-2.25-6.23L289,9.41l-5.55,15.88a.67.67,0,0,1-.08.17.4.4,0,0,1-.16.12,1,1,0,0,1-.27.08l-.44,0-.49,0a.69.69,0,0,1-.28-.1.25.25,0,0,1-.1-.2.7.7,0,0,1,.08-.33L288,7.86a.59.59,0,0,1,.13-.19.47.47,0,0,1,.21-.11,2.09,2.09,0,0,1,.33-.07l.42,0,.44,0a1.94,1.94,0,0,1,.32.07.42.42,0,0,1,.21.11.76.76,0,0,1,.12.19Z"/><path class="cls-1" d="M102,24.87a1.13,1.13,0,0,1,.08.35.3.3,0,0,1-.1.2.77.77,0,0,1-.28.09l-.48,0-.47,0-.27-.06a.31.31,0,0,1-.15-.12,1.14,1.14,0,0,1-.09-.16L98,18.93,94.46,9.26,88.91,25.14a.53.53,0,0,1-.08.17.58.58,0,0,1-.15.11.85.85,0,0,1-.28.08,2.59,2.59,0,0,1-.44,0,3.23,3.23,0,0,1-.48,0,.61.61,0,0,1-.29-.1.26.26,0,0,1-.1-.19.86.86,0,0,1,.08-.34L93.49,7.71a.41.41,0,0,1,.12-.19.66.66,0,0,1,.22-.12,1.3,1.3,0,0,1,.32-.06,2.75,2.75,0,0,1,.42,0,2.89,2.89,0,0,1,.44,0,1.22,1.22,0,0,1,.32.06.53.53,0,0,1,.21.12.52.52,0,0,1,.12.19Z"/><path class="cls-1" d="M126.6,20.75a5,5,0,0,1-.43,2.14A4.5,4.5,0,0,1,125,24.5a5.4,5.4,0,0,1-1.86,1,7.56,7.56,0,0,1-2.34.34,7.7,7.7,0,0,1-1.63-.16,8.68,8.68,0,0,1-1.37-.38,7.66,7.66,0,0,1-1-.45,3.13,3.13,0,0,1-.56-.39,1,1,0,0,1-.23-.38,2,2,0,0,1-.07-.54,2.21,2.21,0,0,1,0-.39.82.82,0,0,1,.08-.25.26.26,0,0,1,.12-.13.47.47,0,0,1,.16,0,1.14,1.14,0,0,1,.55.25,9.59,9.59,0,0,0,.92.53,8.59,8.59,0,0,0,1.36.53,6.25,6.25,0,0,0,1.83.24,4.82,4.82,0,0,0,1.56-.23,3.46,3.46,0,0,0,1.23-.66,3,3,0,0,0,.8-1.07,3.46,3.46,0,0,0,.29-1.44,2.66,2.66,0,0,0-.37-1.44,3.78,3.78,0,0,0-1-1.05,7.69,7.69,0,0,0-1.35-.82l-1.54-.74c-.52-.25-1-.51-1.54-.8a6.82,6.82,0,0,1-1.34-1,4.53,4.53,0,0,1-1-1.36,4.41,4.41,0,0,1-.36-1.86,4.31,4.31,0,0,1,.38-1.87,3.81,3.81,0,0,1,1.06-1.41,4.75,4.75,0,0,1,1.63-.89,7,7,0,0,1,2.1-.3,5.76,5.76,0,0,1,1.16.11,9,9,0,0,1,1.11.28,6.86,6.86,0,0,1,.93.39,2.63,2.63,0,0,1,.55.35,1.33,1.33,0,0,1,.16.2.48.48,0,0,1,.07.16c0,.06,0,.14,0,.23a3.22,3.22,0,0,1,0,.33,1.57,1.57,0,0,1,0,.32.83.83,0,0,1-.06.25.33.33,0,0,1-.11.16.2.2,0,0,1-.14.06,1.1,1.1,0,0,1-.47-.2,7.38,7.38,0,0,0-.79-.45,6.45,6.45,0,0,0-1.13-.46,5.17,5.17,0,0,0-1.49-.2A4.19,4.19,0,0,0,120,9.1a2.9,2.9,0,0,0-1,.61,2.48,2.48,0,0,0-.61.9,3.06,3.06,0,0,0-.2,1.09,2.74,2.74,0,0,0,.36,1.43,3.7,3.7,0,0,0,1,1.06,7.58,7.58,0,0,0,1.36.83c.51.25,1,.5,1.55.74s1,.51,1.55.8a6.45,6.45,0,0,1,1.36,1,4.61,4.61,0,0,1,1,1.35A4.35,4.35,0,0,1,126.6,20.75Z"/><path class="cls-1" d="M203,25.32a.43.43,0,0,1,0,.17.38.38,0,0,1-.13.12,1.31,1.31,0,0,1-.27.07,2.76,2.76,0,0,1-.44,0l-.4,0a.66.66,0,0,1-.27-.08.49.49,0,0,1-.18-.17,1.13,1.13,0,0,1-.13-.27l-1.69-4.38c-.19-.49-.4-1-.62-1.4a5,5,0,0,0-.81-1.13,3.39,3.39,0,0,0-1.15-.76,4.05,4.05,0,0,0-1.6-.28h-1.87v8.13a.26.26,0,0,1,0,.15.23.23,0,0,1-.14.11,1.05,1.05,0,0,1-.26.07,2.22,2.22,0,0,1-.41,0,2.25,2.25,0,0,1-.4,0,1.31,1.31,0,0,1-.27-.07.26.26,0,0,1-.18-.26V8.46a.8.8,0,0,1,.27-.69.9.9,0,0,1,.51-.19h3.39c.45,0,.82,0,1.11,0s.56,0,.8.09a6,6,0,0,1,1.8.58,4.4,4.4,0,0,1,1.27,1,4,4,0,0,1,.74,1.34,5.28,5.28,0,0,1,0,3.21,4.09,4.09,0,0,1-.71,1.24,4.58,4.58,0,0,1-1.11.93,7.21,7.21,0,0,1-1.4.65,3.74,3.74,0,0,1,.83.52,4.07,4.07,0,0,1,.68.74,6.17,6.17,0,0,1,.59,1c.19.38.37.8.56,1.26l1.69,4.22c.12.32.19.54.23.67A1.25,1.25,0,0,1,203,25.32Zm-3-12.9a3.52,3.52,0,0,0-.52-2,2.9,2.9,0,0,0-1.73-1.15,5.52,5.52,0,0,0-.88-.16c-.31,0-.73-.05-1.24-.05h-2.23v6.63H196a5.59,5.59,0,0,0,1.79-.26,3.44,3.44,0,0,0,1.25-.71,2.7,2.7,0,0,0,.73-1A3.66,3.66,0,0,0,200,12.42Z"/><path class="cls-1" d="M229.47,24.87a1.45,1.45,0,0,1,0,.32.67.67,0,0,1-.09.24.41.41,0,0,1-.14.15.41.41,0,0,1-.19.05h-8.45a.92.92,0,0,1-.51-.19.8.8,0,0,1-.27-.69V8.46a.8.8,0,0,1,.27-.69.92.92,0,0,1,.51-.19h8.33a.41.41,0,0,1,.18,0,.34.34,0,0,1,.14.15.67.67,0,0,1,.08.24,1.72,1.72,0,0,1,0,.34,1.51,1.51,0,0,1,0,.32.62.62,0,0,1-.08.23.32.32,0,0,1-.14.14.31.31,0,0,1-.18,0h-7.41v6.35h6.39a.33.33,0,0,1,.2.05.47.47,0,0,1,.14.14,1,1,0,0,1,.08.23,1.72,1.72,0,0,1,0,.34,1.45,1.45,0,0,1,0,.32.71.71,0,0,1-.08.21.43.43,0,0,1-.14.13.42.42,0,0,1-.2,0h-6.39v7.2H229a.32.32,0,0,1,.19.05.47.47,0,0,1,.14.14.61.61,0,0,1,.09.23A1.72,1.72,0,0,1,229.47,24.87Z"/><path class="cls-1" d="M265.52,25.35a.37.37,0,0,1,0,.15.25.25,0,0,1-.15.11,1.31,1.31,0,0,1-.27.07,2.68,2.68,0,0,1-.8,0,1.05,1.05,0,0,1-.26-.07.23.23,0,0,1-.14-.11.26.26,0,0,1,0-.15V9.08h0l-7.1,16.37-.08.1a.48.48,0,0,1-.16.08.7.7,0,0,1-.23.06l-.31,0-.34,0a.7.7,0,0,1-.23-.06.47.47,0,0,1-.14-.08.2.2,0,0,1-.07-.1L248.38,9.08h0V25.35a.27.27,0,0,1-.05.15.2.2,0,0,1-.14.11,1.31,1.31,0,0,1-.27.07,2.34,2.34,0,0,1-.42,0,2.25,2.25,0,0,1-.4,0,1.2,1.2,0,0,1-.26-.07.21.21,0,0,1-.13-.11.37.37,0,0,1,0-.15V8.46a.8.8,0,0,1,.27-.69,1,1,0,0,1,.51-.19h.93a2.25,2.25,0,0,1,.61.08,1.7,1.7,0,0,1,.47.22,1.67,1.67,0,0,1,.34.36,4.12,4.12,0,0,1,.25.47l6,14.34h.07l6.21-14.28a3,3,0,0,1,.3-.57,2,2,0,0,1,.33-.37,1.13,1.13,0,0,1,.38-.19,1.51,1.51,0,0,1,.44-.06h1a1.27,1.27,0,0,1,.26,0,.64.64,0,0,1,.25.15.77.77,0,0,1,.19.27,1,1,0,0,1,.08.42Z"/><path class="cls-1" d="M324,25.32a.26.26,0,0,1-.17.29,1,1,0,0,1-.27.07,2.68,2.68,0,0,1-.44,0l-.4,0a.77.77,0,0,1-.27-.08.73.73,0,0,1-.18-.17.85.85,0,0,1-.12-.27l-1.69-4.38c-.2-.49-.41-1-.63-1.4a4.46,4.46,0,0,0-.81-1.13,3.35,3.35,0,0,0-1.14-.76,4.11,4.11,0,0,0-1.61-.28h-1.86v8.13a.27.27,0,0,1-.05.15.2.2,0,0,1-.14.11,1.09,1.09,0,0,1-.25.07,2.82,2.82,0,0,1-.82,0,1.05,1.05,0,0,1-.26-.07.2.2,0,0,1-.14-.11.27.27,0,0,1-.05-.15V8.46a.8.8,0,0,1,.27-.69,1,1,0,0,1,.52-.19h3.38c.45,0,.82,0,1.11,0s.56,0,.8.09a6,6,0,0,1,1.8.58,4.27,4.27,0,0,1,1.27,1,3.86,3.86,0,0,1,.75,1.34,5.22,5.22,0,0,1,.24,1.61,4.67,4.67,0,0,1-.25,1.6,3.9,3.9,0,0,1-.71,1.24,4.52,4.52,0,0,1-1.1.93,7.59,7.59,0,0,1-1.41.65,3.52,3.52,0,0,1,.83.52,3.74,3.74,0,0,1,.68.74,7,7,0,0,1,.6,1c.18.38.37.8.55,1.26l1.69,4.22a6.79,6.79,0,0,1,.23.67A1.25,1.25,0,0,1,324,25.32Zm-3-12.9a3.6,3.6,0,0,0-.51-2,2.93,2.93,0,0,0-1.73-1.15,5.74,5.74,0,0,0-.88-.16c-.32,0-.73-.05-1.24-.05h-2.23v6.63H317a5.61,5.61,0,0,0,1.8-.26,3.53,3.53,0,0,0,1.25-.71,2.57,2.57,0,0,0,.72-1A3.45,3.45,0,0,0,321,12.42Z"/></svg>